# Blender v2.78 (sub 0) OBJ File: ''
# www.blender.org
o Cube_Cube.002
v -1.000000 -1.000000 1.000000
v -1.000000 -1.000000 -1.000000
v -1.000000 1.000000 -1.000000
v 1.000000 -1.000000 1.000000
v 1.000000 -1.000000 -1.000000
v 1.000000 1.000000 -1.000000
vt 0.0000 0.6667
vt 0.3333 0.3333
vt 0.3333 0.6667
vt 0.6667 0.3333
vt 1.0000 0.0000
vt 1.0000 0.3333
vt 0.0000 0.3333
vt 0.6667 0.0000
vn 0.0000 0.0000 -1.0000
vn 0.0000 -1.0000 0.0000
s off
f 3/1/1 5/2/1 2/3/1
f 5/4/2 1/5/2 2/6/2
f 3/1/1 6/7/1 5/2/1
f 5/4/2 4/8/2 1/5/2
